# xmcd
# Track frame offsets:
# 150
# 17610
# 33620
# 49207
# 65697
# 78317
# 93425
# 108432
# 121577
# 132995
# 146277
#
# Disc length: 2109 seconds
# Revision: 0
# Processed by: cddbd v1.4PL0 Copyright (c) Steve Scherf et al.
# Submitted via: VisiTrax 2.9.5.180 - For more info visit www.synapsa.com
#
DISCID=8e083b0b
DTITLE=Dean Chance - Tonight
DYEAR=1996
DGENRE=
TTITLE0=Eagle Creek
TTITLE1=You know how to get to me by heart
TTITLE2=Pull of the moon
TTITLE3=Then you can tell me goodbye
TTITLE4=I know a good thing
TTITLE5=The note
TTITLE6=The ring
TTITLE7=My luck has run out
TTITLE8=Fire years can't put out
TTITLE9=Tonight
TTITLE10=Standing up for freedom
EXTD=
EXTT0=
EXTT1=
EXTT2=
EXTT3=
EXTT4=
EXTT5=
EXTT6=
EXTT7=
EXTT8=
EXTT9=
EXTT10=
PLAYORDER=
